<svg xmlns="http://www.w3.org/2000/svg" xmlns:xlink="http://www.w3.org/1999/xlink" fill-rule="evenodd" fill="none" stroke-linecap="square" stroke-miterlimit="10" overflow="hidden" preserveAspectRatio="none" style="position:absolute;top:0;left:0" width="709" height="837" viewBox="0 0 270129 318897">
  <rect fill="none" width="100%" height="100%"/>
  <g transform="matrix(.49438 0 0 .49438 6858 63246)">
    <defs cursor="default">
      <filter id="a" filterUnits="userSpaceOnUse" x="182226.0667" y="74753.7888" width="155742" height="155730">
        <feGaussianBlur in="SourceAlpha" stdDeviation="2540" result="blur"/>
        <feComponentTransfer color-interpolation-filters="sRGB">
          <feFuncR type="linear" slope="0"/>
          <feFuncG type="linear" slope="0"/>
          <feFuncB type="linear" slope="0"/>
          <feFuncA type="linear" slope=".098"/>
        </feComponentTransfer>
      </filter>
    </defs>
    <path fill="#fff" d="M0 0h520192v390144H0z"/>
    <path fill="#4BB4D2" d="M0 0h520192v390144H0z"/>
    <path fill="#D2DCE6" fill-opacity=".098" d="M186147.1556 152619.2277c0-40838.14354 33108.54275-73944 73950-73944 19612.75942 0 38422.23128 7790.5062 52290.54647 21657.69617 13868.31518 13867.18997 21659.45353 32675.1357 21659.45353 52286.30383 0 40838.14354-33108.54275 73944-73950 73944s-73950-33105.85646-73950-73944z"/>
    <path fill="#000" fill-opacity=".0196" d="M375993.0223 390128.4094l51.6083 15.5906h-51.6083zM382413.1062-76.2h137807.0773V390144H376044.6306l106379.7279-199640.7625zM144199.0555 390128.4094l-51.6083 15.5906h51.6083zM137778.9716-76.2H-28.1057V390144h144175.5529L37767.7193 190503.2375z"/>
    <use visibility="hidden" pointer-events="none" xlink:href="#b" filter="url(#a)"/>
    <g id="b">
      <path fill="#E8EDF2" d="M190227.5667 152618.7888c0-4826.35923 488.12153-9528.9769 1419.50216-14080.13074 931.32407-4550.87745 2302.09414-8931.76977 4071.109-13113.83246 1768.95524-4181.92175 3928.92286-8147.88977 6441.88499-11867.2449 2512.92583-3719.3014 5368.61852-7176.82932 8531.80083-10339.74074 3163.18242-3162.91152 6621.00715-6018.3602 10340.62773-8531.07125 3719.67452-2512.74747 7685.98447-4672.53135 11868.26584-6441.3357 4182.4225-1768.86404 8563.69383-3139.5179 13114.96322-4070.76266 4551.54587-931.30133 9254.57111-1419.38155 14081.34623-1419.38155 2317.8827 0 4619.20904 114.85301 6905.74948 341.86561 2286.50652 227.00923 4548.88962 565.25064 6788.76667 1012.94505 2239.85582 447.69017 4448.05512 1003.00456 6625.98982 1665.05094 2177.92466 662.04333 4316.68982 1428.115 6417.39944 2298.18289 2100.70959 870.06788 4154.78565 1840.57918 6162.98625 2912.33719 2008.20981 1071.76293 3962.3423 2240.39509 5862.75115 3507.51176 1900.42683 1267.12867 3739.3659 2627.56483 5516.70332 4083.71057 1777.36377 1456.16733 3485.86673 3002.09736 5124.85689 4640.94715 1638.99012 1638.84976 3185.0524 3347.20623 4641.34432 5124.41763 1456.27029 1777.185 2816.82255 3615.96601 4084.0595 5516.22974 1267.22493 1900.24569 2435.9566 3854.20984 3507.81103 5862.24711 1071.84947 2008.028 2042.44324 4061.92678 2912.58533 6162.45571 870.14209 2100.5289 1636.27874 4239.10917 2298.37849 6416.84638 662.10279 2177.74721 1217.46423 4385.75536 1665.19252 6625.41828 447.73254 2239.68413 786.00258 4501.8712 1013.03114 6788.18073 227.03192 2286.34344 341.89465 4587.4703 341.89465 6905.15326 0 4826.35923-488.12153 9528.9769-1419.50216 14080.13074-931.32407 4550.87745-2302.09414 8931.76977-4071.109 13113.83246-1768.95524 4181.92175-3928.92286 8147.88977-6441.88499 11867.2449-2512.92583 3719.3014-5368.61852 7176.82932-8531.80083 10339.74074-3163.18242 3162.91152-6621.00715 6018.3602-10340.62773 8531.07125-3719.67452 2512.74747-7685.98447 4672.53135-11868.26584 6441.3357-4182.4225 1768.86404-8563.69383 3139.5179-13114.96322 4070.76266-4551.54587 931.30133-9254.57111 1419.38155-14081.34623 1419.38155-4826.77512 0-9529.80036-488.08022-14081.34623-1419.38155-4551.26939-931.24475-8932.54073-2301.89862-13114.96322-4070.76266-4182.28137-1768.80435-8148.59132-3928.58823-11868.26584-6441.3357-3719.62058-2512.71104-7177.4453-5368.15973-10340.62773-8531.07125-3163.18231-3162.91142-6018.875-6620.43933-8531.80083-10339.74075-2512.96213-3719.35512-4672.92975-7685.32314-6441.88499-11867.24489-1769.01486-4182.06269-3139.78493-8562.955-4071.109-13113.83246-931.38063-4551.15385-1419.50216-9253.77151-1419.50216-14080.13074z"/>
      
      <g>
        <path stroke="#D2DCE6" stroke-opacity=".2" stroke-width="381" stroke-linecap="butt" stroke-linejoin="round" stroke-miterlimit="8" d="M190037.0667 152618.7888c0-38689.75586 31366.93043-70054 70060-70054 18581.06728 0 36401.10242 7380.6681 49539.90109 20518.34155 13138.79867 13137.67346 20520.09891 30956.18247 20520.09891 49535.65845 0 38689.75586-31366.93043 70054-70060 70054s-70060-31364.24414-70060-70054z"/>
      </g>
    </g>
    <path d="M30705.7778 235848.4223h458784v43776h-458784z"/>
    <path fill="none" pointer-events="visiblePainted" d="M30705.7778 235848.4223h458784v43776h-458784z"/>
    <g>
      <clipPath id="d">
        <path d="M190225.0677 152619.3472c0-38863.17328 31281.86453-70368 69870-70368 18530.67615 0 36302.38404 7413.75014 49405.5508 20610.31002s20464.4492 31094.93602 20464.4492 49757.68998c0 38863.17328-31281.86453 70368-69870 70368s-69870-31504.82672-69870-70368z"/>
      </clipPath>
    </g>
  </g>
</svg>